<svg width="1024" height="600" viewBox="0 0 1024 600" fill="none" xmlns="http://www.w3.org/2000/svg">
  <rect width="1024" height="600" fill="black"/>
  <!-- Header -->
  <rect width="1024" height="64" fill="#09090b" stroke="#18181b"/>
  <rect x="20" y="17" width="30" height="30" rx="4" fill="#2563eb"/>
  <text x="25" y="38" fill="white" font-family="sans-serif" font-weight="bold" font-style="italic" font-size="18">A</text>
  <text x="58" y="30" fill="white" font-family="sans-serif" font-weight="bold" font-size="14">AXIOM</text>
  <text x="58" y="42" fill="#71717a" font-family="monospace" font-size="10">12:00:00 PM</text>
  
  <rect x="180" y="17" width="250" height="30" rx="6" fill="#18181b" stroke="#27272a"/>
  <text x="210" y="37" fill="#71717a" font-family="sans-serif" font-size="12">Search...</text>
  
  <rect x="700" y="17" width="100" height="30" rx="6" fill="#18181b" stroke="#27272a"/>
  <text x="710" y="37" fill="#d4d4d8" font-family="sans-serif" font-size="12">Sort: MCAP</text>
  
  <rect x="810" y="17" width="80" height="30" rx="6" fill="#18181b" stroke="#27272a"/>
  <text x="820" y="37" fill="#d4d4d8" font-family="sans-serif" font-size="12">Filters</text>
  
  <!-- Columns -->
  <!-- Col 1 -->
  <rect x="20" y="80" width="314" height="40" fill="#09090b" stroke="#18181b"/>
  <circle cx="35" cy="100" r="4" fill="#22c55e"/>
  <text x="45" y="105" fill="#a1a1aa" font-family="sans-serif" font-weight="bold" font-size="11">NEW PAIRS</text>
  
  <rect x="20" y="120" width="314" height="50" fill="#000000" stroke="#09090b"/>
  <text x="35" y="145" fill="white" font-family="sans-serif" font-size="12">SOL</text>
  <text x="220" y="145" fill="white" font-family="monospace" font-size="12" text-anchor="end">$145.20</text>
  <text x="300" y="145" fill="#22c55e" font-family="sans-serif" font-size="11" text-anchor="end">+5.24%</text>

  <!-- Col 2 -->
  <rect x="354" y="80" width="314" height="40" fill="#09090b" stroke="#18181b"/>
  <circle cx="369" cy="100" r="4" fill="#f97316"/>
  <text x="379" y="105" fill="#a1a1aa" font-family="sans-serif" font-weight="bold" font-size="11">FINAL STRETCH</text>
  
  <rect x="354" y="120" width="314" height="50" fill="#000000" stroke="#09090b"/>
  <text x="369" y="145" fill="white" font-family="sans-serif" font-size="12">BONK</text>
  <text x="554" y="145" fill="white" font-family="monospace" font-size="12" text-anchor="end">$0.00002</text>
  <text x="634" y="145" fill="#ef4444" font-family="sans-serif" font-size="11" text-anchor="end">-1.12%</text>

  <!-- Col 3 -->
  <rect x="688" y="80" width="314" height="40" fill="#09090b" stroke="#18181b"/>
  <circle cx="703" cy="100" r="4" fill="#3b82f6"/>
  <text x="713" y="105" fill="#a1a1aa" font-family="sans-serif" font-weight="bold" font-size="11">MIGRATED</text>
  
  <rect x="688" y="120" width="314" height="50" fill="#000000" stroke="#09090b"/>
  <text x="703" y="145" fill="white" font-family="sans-serif" font-size="12">PEPE</text>
  <text x="888" y="145" fill="white" font-family="monospace" font-size="12" text-anchor="end">$0.00001</text>
  <text x="968" y="145" fill="#22c55e" font-family="sans-serif" font-size="11" text-anchor="end">+12.5%</text>
</svg>