<svg width="320" height="568" viewBox="0 0 320 568" fill="none" xmlns="http://www.w3.org/2000/svg">
  <rect width="320" height="568" fill="black"/>
  <!-- Header -->
  <rect width="320" height="60" fill="#09090b"/>
  <rect x="12" y="15" width="30" height="30" rx="4" fill="#2563eb"/>
  <text x="17" y="36" fill="white" font-family="sans-serif" font-weight="bold" font-style="italic" font-size="18">A</text>
  <text x="50" y="28" fill="white" font-family="sans-serif" font-weight="bold" font-size="14">AXIOM</text>
  <text x="50" y="40" fill="#71717a" font-family="monospace" font-size="10">12:00:00 PM</text>
  
  <!-- Search -->
  <rect x="12" y="70" width="296" height="36" rx="6" fill="#18181b" stroke="#27272a"/>
  <text x="40" y="93" fill="#71717a" font-family="sans-serif" font-size="12">Search...</text>
  
  <!-- Filters Bar (Horizontal Scroll) -->
  <rect x="12" y="115" width="80" height="30" rx="6" fill="#18181b" stroke="#27272a"/>
  <text x="22" y="135" fill="#d4d4d8" font-family="sans-serif" font-size="12">Sort: MCAP</text>
  <rect x="100" y="115" width="70" height="30" rx="6" fill="#18181b" stroke="#27272a"/>
  <text x="110" y="135" fill="#d4d4d8" font-family="sans-serif" font-size="12">Filters</text>
  
  <!-- Active Column (New Pairs) -->
  <rect x="12" y="155" width="296" height="40" rx="4" fill="#09090b" stroke="#27272a"/>
  <circle cx="25" cy="175" r="4" fill="#22c55e"/>
  <text x="35" y="180" fill="#a1a1aa" font-family="sans-serif" font-weight="bold" font-size="12" letter-spacing="0.1em">NEW PAIRS</text>
  
  <!-- Token Row -->
  <rect x="12" y="205" width="296" height="50" rx="4" fill="#09090b" stroke="#18181b"/>
  <circle cx="35" cy="230" r="14" fill="#27272a"/>
  <text x="31" y="234" fill="white" font-family="sans-serif" font-weight="bold" font-size="12">S</text>
  <text x="58" y="225" fill="white" font-family="sans-serif" font-weight="bold" font-size="14">SOL</text>
  <text x="58" y="240" fill="#71717a" font-family="sans-serif" font-size="10">Solana</text>
  <text x="240" y="225" fill="white" font-family="monospace" font-size="12" text-anchor="end">$145.20</text>
  <text x="240" y="240" fill="#22c55e" font-family="sans-serif" font-size="10" text-anchor="end">+5.24%</text>
  
  <!-- Pagination Dots -->
  <circle cx="140" cy="540" r="3" fill="#2563eb"/>
  <circle cx="160" cy="540" r="3" fill="#27272a"/>
  <circle cx="180" cy="540" r="3" fill="#27272a"/>
</svg>